Input #0, mov,mp4,m4a,3gp,3g2,mj2, from '/home/hbattu/projects/huberman-gpt/huberman-audio/mp3/tmp20m5lsuo.mp4':
  Metadata:
    major_brand     : dash
    minor_version   : 0
    compatible_brands: iso6mp41
    creation_time   : 2022-09-25T20:50:12.000000Z
  Duration: 02:14:34.95, start: 0.000000, bitrate: 129 kb/s
    Stream #0:0(eng): Audio: aac (LC) (mp4a / 0x6134706D), 44100 Hz, stereo, fltp, 0 kb/s (default)
    Metadata:
      creation_time   : 2022-09-25T20:50:12.000000Z
      handler_name    : ISO Media file produced by Google Inc.
Stream mapping:
  Stream #0:0 -> #0:0 (aac (native) -> mp3 (libmp3lame))
Press [q] to stop, [?] for help
[graph_0_in_0_0 @ 0x5644bcc051c0] tb:1/44100 samplefmt:fltp samplerate:44100 chlayout:0x3
Output #0, mp3, to '../huberman-audio/mp3/Nr5xb-QCBGA.mp3':
  Metadata:
    major_brand     : dash
    minor_version   : 0
    compatible_brands: iso6mp41
    TSSE            : Lavf58.29.100
    Stream #0:0(eng): Audio: mp3 (libmp3lame), 44100 Hz, stereo, fltp, delay 1105 (default)
    Metadata:
      creation_time   : 2022-09-25T20:50:12.000000Z
      handler_name    : ISO Media file produced by Google Inc.
      encoder         : Lavc58.54.100 libmp3lame
No more output streams to write to, finishing.
size=  126172kB time=02:14:34.97 bitrate= 128.0kbits/s speed=94.7x    
[AVIOContext @ 0x5644bcaf3900] Statistics: 0 seeks, 171 writeouts
video:0kB audio:126172kB subtitle:0kB other streams:0kB global headers:0kB muxing overhead: 0.000268%
Input file #0 (/home/hbattu/projects/huberman-gpt/huberman-audio/mp3/tmp20m5lsuo.mp4):
  Input stream #0:0 (audio): 347759 packets read (129199171 bytes); 347759 frames decoded (356105216 samples); 
  Total: 347759 packets (129199171 bytes) demuxed
Output file #0 (../huberman-audio/mp3/Nr5xb-QCBGA.mp3):
  Output stream #0:0 (audio): 309120 frames encoded (356105216 samples); 309121 packets muxed (129199960 bytes); 
  Total: 309121 packets (129199960 bytes) muxed
[AVIOContext @ 0x5644bcb1db80] Statistics: 2 seeks, 494 writeouts
[AVIOContext @ 0x5644bcafc880] Statistics: 130684715 bytes read, 0 seeks
